<?xml version="1.0" standalone="no"?>
<!DOCTYPE svg PUBLIC "-//W3C//DTD SVG 20010904//EN"
 "http://www.w3.org/TR/2001/REC-SVG-20010904/DTD/svg10.dtd">
<svg version="1.0" xmlns="http://www.w3.org/2000/svg"
 width="700.000000pt" height="700.000000pt" viewBox="0 0 700.000000 700.000000"
 preserveAspectRatio="xMidYMid meet">
<metadata>
Created by potrace 1.11, written by Peter Selinger 2001-2013
</metadata>
<g transform="translate(0.000000,700.000000) scale(0.100000,-0.100000)"
fill="#000000" stroke="none">
<path d="M3230 6994 c-19 -2 -78 -9 -130 -14 -942 -105 -1814 -604 -2391
-1367 -372 -492 -595 -1038 -685 -1674 -26 -177 -26 -701 0 -878 59 -420 163
-761 342 -1121 494 -994 1440 -1702 2524 -1889 241 -42 300 -46 615 -46 337 1
429 9 705 65 742 151 1431 554 1932 1130 396 457 669 1006 788 1590 56 278 64
367 64 710 0 343 -8 432 -64 710 -243 1193 -1116 2193 -2265 2593 -244 85
-460 137 -720 173 -113 15 -623 28 -715 18z m410 -2204 c362 -21 663 -100 980
-257 256 -127 485 -298 705 -524 179 -184 365 -442 367 -508 3 -103 -387 -566
-642 -762 -328 -252 -687 -417 -1060 -488 -333 -62 -696 -59 -1035 10 -238 49
-578 189 -790 325 -324 208 -607 490 -811 804 -68 106 -66 123 29 263 109 160
194 263 324 393 453 450 1014 707 1628 744 66 4 125 8 130 8 6 1 84 -3 175 -8z"/>
<path d="M3296 4585 c-141 -29 -277 -85 -393 -163 -46 -30 -58 -34 -81 -26
-30 11 -42 55 -21 80 19 23 -3 18 -125 -30 -310 -121 -577 -297 -821 -541
-127 -126 -222 -237 -300 -351 l-38 -55 36 -52 c275 -398 702 -737 1136 -902
52 -19 98 -34 102 -33 4 2 -21 26 -56 55 -176 144 -326 385 -384 616 -15 60
-26 82 -50 103 -102 85 -5 248 115 191 65 -31 84 -129 35 -181 l-21 -23 25
-88 c52 -177 135 -323 261 -455 136 -142 264 -224 449 -286 l110 -37 215 -1
c196 -1 222 1 295 22 88 25 248 100 337 157 46 31 59 35 76 26 29 -16 37 -48
18 -76 -9 -14 -14 -25 -11 -25 15 0 249 97 317 131 275 138 547 350 746 582
82 95 212 267 212 279 0 19 -189 255 -283 354 -203 213 -427 378 -682 504
-146 72 -332 146 -342 136 -2 -2 18 -20 45 -39 75 -56 202 -193 265 -289 64
-95 127 -233 153 -332 15 -53 23 -66 50 -81 58 -31 79 -116 41 -165 -54 -71
-160 -62 -193 15 -19 46 -18 74 5 110 17 29 17 32 -1 100 -78 283 -302 550
-573 680 -153 74 -252 96 -440 101 -113 2 -180 -1 -229 -11z m439 -145 c389
-105 668 -432 715 -839 44 -373 -142 -751 -462 -943 -279 -167 -612 -181 -903
-38 -254 124 -440 353 -511 627 -141 542 190 1083 736 1204 114 25 309 20 425
-11z m-1031 -116 c26 -25 19 -42 -44 -120 -113 -141 -184 -288 -224 -463 -11
-53 -25 -102 -29 -108 -14 -21 -65 -16 -78 8 -22 42 36 260 107 401 43 86 77
138 151 231 57 71 85 83 117 51z m1961 -930 c20 -21 15 -76 -20 -209 -44 -170
-122 -324 -228 -455 -51 -63 -80 -75 -111 -44 -24 23 -19 46 17 90 122 143
217 347 247 532 7 40 19 79 27 87 19 20 48 19 68 -1z"/>
<path d="M3330 4351 c-316 -68 -558 -295 -656 -616 -25 -81 -27 -105 -27 -240
0 -134 2 -159 26 -238 96 -314 319 -530 632 -612 98 -26 284 -27 385 -1 464
116 751 582 644 1045 -41 180 -123 322 -258 448 -204 191 -480 270 -746 214z
m307 -308 c52 -24 120 -95 146 -151 17 -36 22 -66 22 -127 -1 -96 -24 -152
-91 -218 l-43 -43 45 -273 c41 -252 43 -276 29 -298 -15 -23 -16 -23 -238 -23
-160 0 -226 3 -235 12 -19 19 -15 70 28 334 l40 248 -41 40 c-76 72 -112 190
-89 288 46 194 251 295 427 211z"/>
</g>
</svg>
