<?xml version="1.0" encoding="UTF-8"?>
<svg width="512px" height="512px" enable-background="new 0 0 299.997 299.997" version="1.1" viewBox="0 0 300 300" xml:space="preserve" xmlns="http://www.w3.org/2000/svg">
		<path d="m150 0c-82.839 0-150 67.158-150 150 0 82.837 67.156 150 150 150s150-67.163 150-150c0-82.841-67.161-150-150-150zm0.457 220.76v-2e-3h-64.988c0-46.856 41.152-46.845 50.284-59.097l1.045-5.587c-12.83-6.502-21.887-22.178-21.887-40.512 0-24.154 15.712-43.738 35.089-43.738s35.089 19.584 35.089 43.738c0 18.178-8.896 33.756-21.555 40.361l1.19 6.349c10.019 11.658 49.802 12.418 49.802 58.488h-64.069z" fill="currentColor"/>
</svg>
