<svg id="Layer_1" data-name="Layer 1" xmlns="http://www.w3.org/2000/svg" viewBox="0 0 160 26.61"><defs><style>.cls-1{fill:#fff;}</style></defs><title>Ambrosus-LOGO</title><path class="cls-1" d="M52,14.9H44.92v7.26a.54.54,0,0,1-.18.42.59.59,0,0,1-.41.16H43a.59.59,0,0,1-.44-.18.56.56,0,0,1-.18-.4V6.35q0-1.59,2.24-3.39a6.61,6.61,0,0,1,3.82-1.8A6.61,6.61,0,0,1,52.28,3q2.24,1.8,2.24,3.39V22.16a.56.56,0,0,1-.18.4.59.59,0,0,1-.44.18H52.57a.61.61,0,0,1-.58-.58ZM44.92,6.67v6H52v-6a3,3,0,0,0-1.3-2,3.75,3.75,0,0,0-2.24-1.1,3.8,3.8,0,0,0-2.22,1.1A2.94,2.94,0,0,0,44.92,6.67Z"/><path class="cls-1" d="M67.12,22.16V11a2.22,2.22,0,0,0-1-1.6,3,3,0,0,0-1.7-.83,3,3,0,0,0-1.7.83,2.22,2.22,0,0,0-1,1.6V22.16a.56.56,0,0,1-.58.58h-1.3a.52.52,0,0,1-.58-.58V10.63q0-1.39,1.88-2.87a5.66,5.66,0,0,1,3.27-1.47A4,4,0,0,1,66.42,7a8.54,8.54,0,0,1,1.93,1.64A8.4,8.4,0,0,1,70.29,7a4,4,0,0,1,2-.73,5.68,5.68,0,0,1,3.3,1.47q1.88,1.47,1.88,2.87V22.16a.54.54,0,0,1-.18.42.58.58,0,0,1-.4.16h-1.3a.52.52,0,0,1-.58-.58V11a2.22,2.22,0,0,0-1-1.6,3,3,0,0,0-1.73-.83,3,3,0,0,0-1.7.83,2.22,2.22,0,0,0-1,1.6V22.16a.52.52,0,0,1-.58.58H67.7a.56.56,0,0,1-.58-.58Z"/><path class="cls-1" d="M84.51.58V8a5.67,5.67,0,0,1,1.55-1.18,3.7,3.7,0,0,1,1.72-.5A5.64,5.64,0,0,1,91,7.76a4,4,0,0,1,1.88,3v7.81q0,1.46-2,3A6.05,6.05,0,0,1,87.46,23,6,6,0,0,1,84,21.51Q82.05,20,82.05,18.56V.58a.57.57,0,0,1,.16-.42A.57.57,0,0,1,82.63,0h1.3a.57.57,0,0,1,.42.16A.57.57,0,0,1,84.51.58Zm5.93,10.5a2.31,2.31,0,0,0-1.07-1.67,3.19,3.19,0,0,0-1.88-.86,3.31,3.31,0,0,0-1.88.86A2.29,2.29,0,0,0,84.51,11v7.16a2.34,2.34,0,0,0,1.05,1.65,3.12,3.12,0,0,0,1.9.87,3.21,3.21,0,0,0,1.91-.86,2.31,2.31,0,0,0,1.07-1.67Z"/><path class="cls-1" d="M104.34,7.32l-.16,1q-.1.52-.75.42a5.8,5.8,0,0,0-1.1-.13,2.9,2.9,0,0,0-1.7.89,2.39,2.39,0,0,0-1,1.64v11a.52.52,0,0,1-.58.58h-1.3a.56.56,0,0,1-.58-.58V10.76A4.06,4.06,0,0,1,99,7.82a5.47,5.47,0,0,1,3.24-1.51,5.2,5.2,0,0,1,1.65.26A.56.56,0,0,1,104.34,7.32Z"/><path class="cls-1" d="M126.66,8.55a3.18,3.18,0,0,0-1.7.79q-1.05.79-1.05,1.44v.71q0,.84,1.46,1.42l3.73,1.39q2.46,1,2.46,3v1.59q0,1.23-1.86,2.66A5.7,5.7,0,0,1,126.4,23,11,11,0,0,1,122,21.51a.67.67,0,0,1-.36-1l.36-.84q.26-.58,1-.26a10.58,10.58,0,0,0,3.4,1.3,3.07,3.07,0,0,0,1.7-.78q1-.78,1-1.37v-.94a1.17,1.17,0,0,0-.4-.91,4.28,4.28,0,0,0-1.18-.68L124,14.68q-2.46-.94-2.46-2.82V10.46q0-1.3,1.93-2.74a5.87,5.87,0,0,1,3.22-1.44,10.7,10.7,0,0,1,4.24,1.39.61.61,0,0,1,.29.84l-.32.87q-.29.62-1,.26A12.15,12.15,0,0,0,126.66,8.55Z"/><path class="cls-1" d="M137.61,7.13v11a2.34,2.34,0,0,0,1.05,1.73,3.13,3.13,0,0,0,1.86.86,3.17,3.17,0,0,0,1.85-.86,2.33,2.33,0,0,0,1.07-1.73v-11a.52.52,0,0,1,.58-.58h1.3a.56.56,0,0,1,.58.58V18.5q0,1.52-1.94,3a4.72,4.72,0,0,1-6.88,0,4,4,0,0,1-1.93-3V7.13a.56.56,0,0,1,.58-.58H137a.56.56,0,0,1,.58.58Z"/><path class="cls-1" d="M155.11,8.55a3.18,3.18,0,0,0-1.7.79q-1.05.79-1.05,1.44v.71q0,.84,1.46,1.42l3.73,1.39q2.46,1,2.46,3v1.59q0,1.23-1.86,2.66A5.7,5.7,0,0,1,154.85,23a11,11,0,0,1-4.41-1.49.67.67,0,0,1-.36-1l.36-.84q.26-.58,1-.26a10.59,10.59,0,0,0,3.4,1.3,3.07,3.07,0,0,0,1.7-.78q1-.78,1-1.37v-.94a1.17,1.17,0,0,0-.4-.91A4.28,4.28,0,0,0,156,16l-3.57-1.37Q150,13.74,150,11.86V10.46q0-1.3,1.93-2.74a5.87,5.87,0,0,1,3.22-1.44,10.7,10.7,0,0,1,4.24,1.39.61.61,0,0,1,.29.84l-.32.87q-.29.62-1,.26A12.15,12.15,0,0,0,155.11,8.55Z"/><path class="cls-1" d="M115.72,7.78a8.16,8.16,0,0,0-2.25-1.28V3.13a.43.43,0,0,0-.16-.34.62.62,0,0,0-.41-.13h-1.26a.62.62,0,0,0-.41.13.43.43,0,0,0-.16.34V6.5a8.12,8.12,0,0,0-2.25,1.29q-2,1.51-2,3V18.5q0,1.49,2,3a8.12,8.12,0,0,0,2.25,1.29v3.35a.43.43,0,0,0,.16.34.62.62,0,0,0,.41.13h1.26a.62.62,0,0,0,.41-.13.43.43,0,0,0,.16-.34V22.78a8.31,8.31,0,0,0,2.24-1.3q2-1.52,2-3V10.79Q117.68,9.27,115.72,7.78Zm-.5,10.4a2.32,2.32,0,0,1-1.07,1.7,3.19,3.19,0,0,1-1.88.86,3.15,3.15,0,0,1-1.9-.86,2.32,2.32,0,0,1-1.05-1.7V11.11a2.32,2.32,0,0,1,1.07-1.7,2.49,2.49,0,0,1,3.76,0,2.32,2.32,0,0,1,1.07,1.7Z"/><path class="cls-1" d="M25.75,14.37a.42.42,0,0,0-.47.37,8.29,8.29,0,0,1-2.12,4.65.42.42,0,0,0,.62.57,9.13,9.13,0,0,0,2.33-5.12A.42.42,0,0,0,25.75,14.37Z"/><path class="cls-1" d="M10.89,7.43a.42.42,0,0,0-.59,0,9.14,9.14,0,0,0-2.42,5,.42.42,0,0,0,.35.48h.06a.42.42,0,0,0,.41-.36A8.3,8.3,0,0,1,10.9,8,.42.42,0,0,0,10.89,7.43Z"/><path class="cls-1" d="M17,6.33a7.44,7.44,0,1,0,7.44,7.44A7.45,7.45,0,0,0,17,6.33Zm0,14a6.6,6.6,0,1,1,6.6-6.6A6.61,6.61,0,0,1,17,20.37Z"/><path class="cls-1" d="M19.41,11.72a2.37,2.37,0,1,0-3.69,2l-.66,4a.48.48,0,0,0,.49.58h3A.48.48,0,0,0,19,17.7l-.66-4A2.37,2.37,0,0,0,19.41,11.72Z"/><path class="cls-1" d="M33.9,14v0l0,0v-.18s0,0,0,0,0,0,0,0v-.18l0,0v0l0,0,0,0h0a19.74,19.74,0,0,0-33.76,0h0l0,0,0,0v0l0,0v.18s0,0,0,0,0,0,0,0V14l0,0v0l0,0,0,0h0a19.74,19.74,0,0,0,33.76,0h0l0,0ZM22.33,21.26l.14-.1a.42.42,0,1,0-.5-.67A8.36,8.36,0,0,1,18.49,22c-.49,0-1,.06-1.51.06s-1,0-1.52-.06a8.33,8.33,0,0,1-6.69-6.59.91.91,0,1,0-.83.11,9.17,9.17,0,0,0,3.67,5.74,19,19,0,0,1-9.9-7.51,19,19,0,0,1,10-7.55l-.12.08a.42.42,0,1,0,.49.68,8.36,8.36,0,0,1,3.75-1.48l.07,0,1,0,1,0,.08,0a8.39,8.39,0,0,1,7.06,6.45.91.91,0,1,0,.81-.22,9.23,9.23,0,0,0-3.76-5.52,19,19,0,0,1,10.06,7.56A19,19,0,0,1,22.33,21.26Z"/></svg>
