<?xml version="1.0" encoding="UTF-8"?>
<!DOCTYPE svg  PUBLIC '-//W3C//DTD SVG 1.1//EN'  'http://www.w3.org/Graphics/SVG/1.1/DTD/svg11.dtd'>
<svg width="512px" height="512px" enable-background="new 0 0 73.168 73.168" version="1.1" viewBox="0 0 73.168 73.168" xml:space="preserve" xmlns="http://www.w3.org/2000/svg">
			<path d="m4.242 14.425h64.684c2.344 0 4.242-1.933 4.242-4.324 0-2.385-1.898-4.325-4.242-4.325h-64.684c-2.344 0-4.242 1.94-4.242 4.325 0 2.392 1.898 4.324 4.242 4.324zm64.684 17.834h-64.684c-2.344 0-4.242 1.941-4.242 4.325 0 2.393 1.898 4.325 4.242 4.325h64.684c2.344 0 4.242-1.933 4.242-4.325 0-2.384-1.898-4.325-4.242-4.325zm0 26.483h-64.684c-2.344 0-4.242 1.941-4.242 4.325 0 2.393 1.898 4.325 4.242 4.325h64.684c2.344 0 4.242-1.935 4.242-4.325 0-2.384-1.898-4.325-4.242-4.325z" fill="#fff"/>
</svg>
