<svg width="24" height="24" viewBox="0 0 24 24" fill="none" xmlns="http://www.w3.org/2000/svg">
<path d="M12.5004 17.4V13.8H11.5004V17.4H12.5004ZM7.20039 17.9H16.8004V16.9H7.20039V17.9ZM16.8004 20.5H7.20039V21.5H16.8004V20.5ZM7.20039 20.5C6.48242 20.5 5.90039 19.918 5.90039 19.2H4.90039C4.90039 20.4703 5.93014 21.5 7.20039 21.5V20.5ZM18.1004 19.2C18.1004 19.918 17.5184 20.5 16.8004 20.5V21.5C18.0706 21.5 19.1004 20.4703 19.1004 19.2H18.1004ZM16.8004 17.9C17.5184 17.9 18.1004 18.482 18.1004 19.2H19.1004C19.1004 17.9298 18.0706 16.9 16.8004 16.9V17.9ZM7.20039 16.9C5.93014 16.9 4.90039 17.9298 4.90039 19.2H5.90039C5.90039 18.482 6.48242 17.9 7.20039 17.9V16.9ZM7.20039 10.7H16.8004V9.70001H7.20039V10.7ZM16.8004 13.3H7.20039V14.3H16.8004V13.3ZM7.20039 13.3C6.48242 13.3 5.90039 12.718 5.90039 12H4.90039C4.90039 13.2703 5.93014 14.3 7.20039 14.3V13.3ZM18.1004 12C18.1004 12.718 17.5184 13.3 16.8004 13.3V14.3C18.0706 14.3 19.1004 13.2703 19.1004 12H18.1004ZM16.8004 10.7C17.5184 10.7 18.1004 11.282 18.1004 12H19.1004C19.1004 10.7298 18.0706 9.70001 16.8004 9.70001V10.7ZM7.20039 9.70001C5.93014 9.70001 4.90039 10.7298 4.90039 12H5.90039C5.90039 11.282 6.48242 10.7 7.20039 10.7V9.70001Z" fill="#9198BB"/>
<path d="M5.40039 4.8C5.40039 3.80589 6.20628 3 7.20039 3H16.8004C17.7945 3 18.6004 3.80589 18.6004 4.8V4.8C18.6004 5.79411 17.7945 6.6 16.8004 6.6H7.20039C6.20628 6.6 5.40039 5.79411 5.40039 4.8V4.8Z" stroke="#9198BB" stroke-dasharray="2 2"/>
</svg>
