<svg width="24" height="24" viewBox="0 0 24 24" fill="none" xmlns="http://www.w3.org/2000/svg">
<path d="M11.9996 2.71765L12.2364 2.27729C12.0886 2.19776 11.9107 2.19776 11.7628 2.27729L11.9996 2.71765ZM20.3996 7.23529H20.8996C20.8996 7.05126 20.7985 6.88211 20.6364 6.79494L20.3996 7.23529ZM20.3996 17.4L20.6364 17.8404C20.7985 17.7532 20.8996 17.584 20.8996 17.4H20.3996ZM11.9996 21.9176L11.7628 22.358C11.9107 22.4375 12.0886 22.4375 12.2364 22.358L11.9996 21.9176ZM3.59961 17.4H3.09961C3.09961 17.584 3.2007 17.7532 3.36278 17.8404L3.59961 17.4ZM3.59961 7.23529L3.36278 6.79494C3.2007 6.88211 3.09961 7.05126 3.09961 7.23529H3.59961ZM11.4996 15.6C11.4996 15.8761 11.7235 16.1 11.9996 16.1C12.2758 16.1 12.4996 15.8761 12.4996 15.6H11.4996ZM8.63644 9.15965C8.39324 9.02885 8.09005 9.11997 7.95926 9.36318C7.82846 9.60638 7.91958 9.90956 8.16278 10.0404L8.63644 9.15965ZM15.8364 10.0404C16.0796 9.90956 16.1708 9.60638 16.04 9.36318C15.9092 9.11997 15.606 9.02885 15.3628 9.15965L15.8364 10.0404ZM11.7628 3.158L20.1628 7.67565L20.6364 6.79494L12.2364 2.27729L11.7628 3.158ZM19.8996 7.23529V17.4H20.8996V7.23529H19.8996ZM20.1628 16.9596L11.7628 21.4773L12.2364 22.358L20.6364 17.8404L20.1628 16.9596ZM12.2364 21.4773L3.83644 16.9596L3.36278 17.8404L11.7628 22.358L12.2364 21.4773ZM4.09961 17.4V7.23529H3.09961V17.4H4.09961ZM3.83644 7.67565L12.2364 3.158L11.7628 2.27729L3.36278 6.79494L3.83644 7.67565ZM11.4996 11.5361V15.6H12.4996V11.5361H11.4996ZM12.2364 11.0958L8.63644 9.15965L8.16278 10.0404L11.7628 11.9765L12.2364 11.0958ZM15.3628 9.15965L11.7628 11.0958L12.2364 11.9765L15.8364 10.0404L15.3628 9.15965Z" fill="#9198BB"/>
</svg>
