<svg width="6" height="18" viewBox="0 0 6 18" fill="none" xmlns="http://www.w3.org/2000/svg">
<path d="M2.9998 10.3C2.28184 10.3 1.69981 9.71798 1.69981 9.00001L0.699806 9.00001C0.699806 10.2703 1.72955 11.3 2.9998 11.3L2.9998 10.3ZM1.69981 9.00001C1.69981 8.28204 2.28184 7.70001 2.9998 7.70001L2.9998 6.70001C1.72955 6.70001 0.699806 7.72975 0.699806 9.00001L1.69981 9.00001ZM2.9998 7.70001C3.71777 7.70001 4.2998 8.28204 4.2998 9.00001L5.2998 9.00001C5.2998 7.72975 4.27006 6.70001 2.9998 6.70001L2.9998 7.70001ZM4.2998 9.00001C4.2998 9.71798 3.71777 10.3 2.9998 10.3L2.9998 11.3C4.27006 11.3 5.2998 10.2703 5.2998 9.00001L4.2998 9.00001ZM2.99981 17.9C4.27006 17.9 5.2998 16.8703 5.2998 15.6L4.2998 15.6C4.2998 16.318 3.71777 16.9 2.99981 16.9L2.99981 17.9ZM5.2998 15.6C5.2998 14.3298 4.27006 13.3 2.99981 13.3L2.99981 14.3C3.71777 14.3 4.2998 14.882 4.2998 15.6L5.2998 15.6ZM2.99981 13.3C1.72955 13.3 0.699806 14.3298 0.699806 15.6L1.69981 15.6C1.69981 14.882 2.28184 14.3 2.99981 14.3L2.99981 13.3ZM2.99981 3.70001C2.28184 3.70001 1.69981 3.11798 1.69981 2.40001L0.699806 2.40001C0.699806 3.67026 1.72955 4.70001 2.99981 4.70001L2.99981 3.70001ZM1.69981 2.40001C1.69981 1.68204 2.28184 1.10001 2.99981 1.10001L2.99981 0.100006C1.72955 0.100006 0.699806 1.12975 0.699806 2.40001L1.69981 2.40001ZM2.99981 1.10001C3.71777 1.10001 4.2998 1.68204 4.2998 2.40001L5.2998 2.40001C5.2998 1.12975 4.27006 0.100006 2.99981 0.100006L2.99981 1.10001ZM4.2998 2.40001C4.2998 3.11798 3.71777 3.70001 2.99981 3.70001L2.99981 4.70001C4.27006 4.70001 5.2998 3.67026 5.2998 2.40001L4.2998 2.40001Z" fill="#333333"/>
</svg>
