<svg width="24" height="24" viewBox="0 0 24 24" fill="none" xmlns="http://www.w3.org/2000/svg">
<path d="M20.3996 20.9521C19.295 19.9468 17.5459 19.1808 15.3366 18.7499C15.0144 18.7021 14.7843 18.4148 14.7843 18.0797C14.7843 17.6967 14.7843 17.3137 14.7843 16.9307C14.7843 16.0211 15.8429 14.8722 15.935 13.5796C16.3032 12.8136 16.4873 12.0476 16.4873 11.4253C16.4873 11.0423 16.3952 10.8029 16.2111 10.6114C16.3032 10.1327 16.3952 9.60608 16.4873 9.07947C16.8555 6.97303 16.1191 5.44107 14.37 4.77084C13.7256 4.53147 11.056 4.05273 10.0434 3.04739C9.67523 2.6644 9.95139 4.72297 9.58317 4.91446C7.83413 5.72831 7.14372 7.0209 7.51194 9.12734C7.60399 9.65395 7.69605 10.1806 7.7881 10.6593C7.60399 10.8508 7.51194 11.0902 7.51194 11.4731C7.51194 12.0476 7.69605 12.8136 8.06427 13.6275C8.11029 14.92 9.21495 15.9733 9.21495 16.9786C9.21495 17.3616 9.21495 17.7925 9.21495 18.1276C9.21495 18.4627 8.98482 18.7499 8.66262 18.7978C6.49934 19.1808 4.70427 19.9947 3.59961 21" stroke="#9198BB" stroke-miterlimit="10" stroke-linecap="round"/>
</svg>
