<svg width="489" height="478" viewBox="0 0 489 478" fill="none" xmlns="http://www.w3.org/2000/svg">
<g clip-path="url(#clip0)">
<path d="M425.649 90.317L340.316 4.983C338.727 3.39 336.835 2.131 334.752 1.28C332.693 0.439 330.491 0.004 328.267 0H106.4C78.123 0 55.2 22.923 55.2 51.2V426.667C55.2 454.944 78.123 477.867 106.4 477.867H379.467C407.744 477.867 430.667 454.944 430.667 426.667V102.4C430.643 97.87 428.841 93.531 425.649 90.317ZM345.333 58.266L372.401 85.334H345.333V58.266ZM396.533 426.667C396.533 436.093 388.892 443.734 379.466 443.734H106.4C96.974 443.734 89.333 436.093 89.333 426.667V51.2C89.333 41.774 96.974 34.133 106.4 34.133H311.2V102.4C311.2 111.826 318.841 119.467 328.267 119.467H396.534V426.667H396.533Z" fill="black"/>
</g>
<g filter="url(#filter0_d)">
<rect x="4" y="180" width="481" height="167" rx="20" fill="black"/>
<rect x="4.5" y="180.5" width="480" height="166" rx="19.5" stroke="black"/>
</g>
<path d="M143.2 305C142.4 305 141.72 304.76 141.16 304.28C140.68 303.72 140.44 303.04 140.44 302.24V223.88C140.44 223 140.68 222.32 141.16 221.84C141.72 221.28 142.4 221 143.2 221H173.68C182.72 221 189.84 223.2 195.04 227.6C200.24 232 202.84 238.36 202.84 246.68C202.84 255 200.24 261.36 195.04 265.76C189.92 270.08 182.8 272.24 173.68 272.24H152.44V302.24C152.44 303.04 152.16 303.72 151.6 304.28C151.04 304.76 150.36 305 149.56 305H143.2ZM173.08 262.16C178.92 262.16 183.32 260.84 186.28 258.2C189.32 255.56 190.84 251.72 190.84 246.68C190.84 241.64 189.36 237.8 186.4 235.16C183.44 232.44 179 231.08 173.08 231.08H152.32V262.16H173.08ZM220.192 305C219.392 305 218.712 304.76 218.152 304.28C217.672 303.72 217.432 303.04 217.432 302.24V223.88C217.432 223 217.672 222.32 218.152 221.84C218.712 221.28 219.392 221 220.192 221H247.432C259.512 221 268.232 223.72 273.592 229.16C278.952 234.52 281.752 242.64 281.992 253.52C282.072 255.84 282.112 258.96 282.112 262.88C282.112 266.8 282.072 269.96 281.992 272.36C281.752 279.96 280.472 286.16 278.152 290.96C275.912 295.68 272.352 299.2 267.472 301.52C262.592 303.84 256.112 305 248.032 305H220.192ZM247.432 294.8C252.952 294.8 257.312 294.04 260.512 292.52C263.792 291 266.152 288.6 267.592 285.32C269.112 281.96 269.952 277.48 270.112 271.88C270.272 267.08 270.352 264.08 270.352 262.88C270.352 261.6 270.272 258.64 270.112 254C269.952 246.08 268.072 240.32 264.472 236.72C260.872 233.04 254.992 231.2 246.832 231.2H229.192V294.8H247.432ZM302.927 305C302.127 305 301.447 304.76 300.887 304.28C300.407 303.72 300.167 303.04 300.167 302.24V223.88C300.167 223 300.407 222.32 300.887 221.84C301.447 221.28 302.127 221 302.927 221H351.887C352.767 221 353.447 221.28 353.927 221.84C354.487 222.32 354.767 223 354.767 223.88V228.68C354.767 229.48 354.487 230.16 353.927 230.72C353.447 231.2 352.767 231.44 351.887 231.44H311.807V259.4H349.487C350.367 259.4 351.047 259.68 351.527 260.24C352.087 260.72 352.367 261.4 352.367 262.28V267.08C352.367 267.88 352.087 268.56 351.527 269.12C350.967 269.6 350.287 269.84 349.487 269.84H311.807V302.24C311.807 303.04 311.527 303.72 310.967 304.28C310.407 304.76 309.727 305 308.927 305H302.927Z" fill="white"/>
<defs>
<filter id="filter0_d" x="0" y="180" width="489" height="175" filterUnits="userSpaceOnUse" color-interpolation-filters="sRGB">
<feFlood flood-opacity="0" result="BackgroundImageFix"/>
<feColorMatrix in="SourceAlpha" type="matrix" values="0 0 0 0 0 0 0 0 0 0 0 0 0 0 0 0 0 0 127 0"/>
<feOffset dy="4"/>
<feGaussianBlur stdDeviation="2"/>
<feColorMatrix type="matrix" values="0 0 0 0 0 0 0 0 0 0 0 0 0 0 0 0 0 0 0.25 0"/>
<feBlend mode="normal" in2="BackgroundImageFix" result="effect1_dropShadow"/>
<feBlend mode="normal" in="SourceGraphic" in2="effect1_dropShadow" result="shape"/>
</filter>
<clipPath id="clip0">
<rect width="477.867" height="477.867" fill="white" transform="translate(4)"/>
</clipPath>
</defs>
</svg>
