<?xml version="1.0" encoding="UTF-8"?>
<svg enable-background="new 0 0 473.194 473.194" version="1.1" viewBox="0 0 473.19 473.19" xml:space="preserve" xmlns="http://www.w3.org/2000/svg" width="20" height="20">
	<path d="m464.65 167.76c-0.824-3.273-2.996-6.037-5.969-7.633-2.965-1.586-6.47-1.855-9.65-0.738-27.88 9.795-70.896 16.098-119.28 16.098-11.762 0-23.098-0.449-34.089-1.156-5.683 25.676-14.764 49.252-26.363 70.016 0.564-0.023 1.103-0.115 1.672-0.115 15.034 0 27.218-1.254 27.218 8.873s-12.185 27.803-27.218 27.803c-8.757 0-16.467-2.834-21.442-7.162-15.025 18.654-32.578 33.363-51.909 43.09 21.795 73.361 72.751 124.82 132.13 124.82 79.219 0 143.44-91.584 143.44-204.56-1e-3 -24.37-3.044-47.69-8.542-69.341zm-77.733 214.17c-0.254 1.078-1.056 1.957-2.11 2.303-1.056 0.353-2.218 0.131-3.066-0.586-11.174-9.389-30.182-15.627-51.985-15.627-21.805 0-40.813 6.238-51.986 15.627-0.849 0.709-2.012 0.932-3.066 0.586-1.055-0.354-1.856-1.225-2.11-2.303-0.925-3.936-1.494-7.994-1.494-12.215 0-32.395 26.263-58.656 58.657-58.656s58.655 26.262 58.655 58.656c-2e-3 4.221-0.571 8.28-1.495 12.215zm1.617-101.02c-15.034 0-27.218-17.676-27.218-27.803s12.185-8.873 27.218-8.873 27.218 8.211 27.218 18.338c-1e-3 10.127-12.185 18.338-27.218 18.338z"/>
	<path d="m286.87 109.92c0-24.367-3.043-47.688-8.541-69.338-0.824-3.273-2.996-6.039-5.969-7.633-1.756-0.939-3.705-1.416-5.669-1.416-1.341 0-2.688 0.221-3.981 0.678-27.88 9.795-70.895 16.096-119.28 16.096-48.382 0-91.397-6.301-119.28-16.096-1.286-0.457-2.626-0.678-3.966-0.678-1.963 0-3.921 0.482-5.685 1.424-2.965 1.594-5.144 4.359-5.969 7.625-5.498 21.651-8.541 44.971-8.541 69.338 0 112.98 64.217 204.56 143.44 204.56 79.219 0 143.44-91.582 143.44-204.56zm-229.44 25.424c0-10.129 12.185-18.338 27.219-18.338 15.033 0 27.218 17.674 27.218 27.803 0 10.127-12.185 8.873-27.218 8.873-15.034 0-27.219-8.211-27.219-18.338zm85.999 140.46c-32.395 0-58.656-26.262-58.656-58.654 0-4.221 0.569-8.281 1.493-12.217 0.254-1.076 1.056-1.947 2.11-2.303 1.056-0.346 2.218-0.123 3.066 0.586 11.174 9.389 30.182 15.627 51.986 15.627s40.812-6.238 51.985-15.627c0.849-0.717 2.011-0.939 3.066-0.586 1.055 0.348 1.856 1.227 2.11 2.303 0.924 3.936 1.494 7.996 1.494 12.217 1e-3 32.392-26.261 58.654-58.654 58.654zm31.56-131c0-10.129 12.185-27.803 27.219-27.803 15.033 0 27.218 8.209 27.218 18.338 0 10.127-12.185 18.338-27.218 18.338-15.034 0-27.219 1.254-27.219-8.873z"/>
</svg>
