<svg width="489" height="478" viewBox="0 0 489 478" fill="none" xmlns="http://www.w3.org/2000/svg">
<g clip-path="url(#clip0)">
<path d="M425.649 90.317L340.316 4.983C338.727 3.39 336.835 2.131 334.752 1.28C332.693 0.439 330.491 0.004 328.267 0H106.4C78.123 0 55.2 22.923 55.2 51.2V426.667C55.2 454.944 78.123 477.867 106.4 477.867H379.467C407.744 477.867 430.667 454.944 430.667 426.667V102.4C430.643 97.87 428.841 93.531 425.649 90.317ZM345.333 58.266L372.401 85.334H345.333V58.266ZM396.533 426.667C396.533 436.093 388.892 443.734 379.466 443.734H106.4C96.974 443.734 89.333 436.093 89.333 426.667V51.2C89.333 41.774 96.974 34.133 106.4 34.133H311.2V102.4C311.2 111.826 318.841 119.467 328.267 119.467H396.534V426.667H396.533Z" fill="black"/>
</g>
<g filter="url(#filter0_d)">
<rect x="4" y="180" width="481" height="167" rx="20" fill="black"/>
<rect x="4.5" y="180.5" width="480" height="166" rx="19.5" stroke="black"/>
</g>
<path d="M152.56 305C151.76 305 151.08 304.76 150.52 304.28C150.04 303.72 149.8 303.04 149.8 302.24V231.68H126.76C125.96 231.68 125.28 231.44 124.72 230.96C124.24 230.4 124 229.72 124 228.92V223.88C124 223.08 124.24 222.4 124.72 221.84C125.28 221.28 125.96 221 126.76 221H184.6C185.48 221 186.16 221.28 186.64 221.84C187.2 222.32 187.48 223 187.48 223.88V228.92C187.48 229.72 187.2 230.4 186.64 230.96C186.08 231.44 185.4 231.68 184.6 231.68H161.68V302.24C161.68 303.04 161.4 303.72 160.84 304.28C160.28 304.76 159.6 305 158.8 305H152.56ZM203.692 305C202.892 305 202.212 304.76 201.652 304.28C201.172 303.72 200.932 303.04 200.932 302.24V223.76C200.932 222.96 201.172 222.32 201.652 221.84C202.212 221.28 202.892 221 203.692 221H210.052C210.852 221 211.492 221.28 211.972 221.84C212.532 222.32 212.812 222.96 212.812 223.76V302.24C212.812 303.04 212.532 303.72 211.972 304.28C211.492 304.76 210.852 305 210.052 305H203.692ZM236.505 305C235.705 305 235.025 304.76 234.465 304.28C233.985 303.72 233.745 303.04 233.745 302.24V223.88C233.745 223 233.985 222.32 234.465 221.84C235.025 221.28 235.705 221 236.505 221H285.465C286.345 221 287.025 221.28 287.505 221.84C288.065 222.32 288.345 223 288.345 223.88V228.68C288.345 229.48 288.065 230.16 287.505 230.72C287.025 231.2 286.345 231.44 285.465 231.44H245.385V259.4H283.065C283.945 259.4 284.625 259.68 285.105 260.24C285.665 260.72 285.945 261.4 285.945 262.28V267.08C285.945 267.88 285.665 268.56 285.105 269.12C284.545 269.6 283.865 269.84 283.065 269.84H245.385V302.24C245.385 303.04 245.105 303.72 244.545 304.28C243.985 304.76 243.305 305 242.505 305H236.505ZM306.583 305C305.783 305 305.103 304.76 304.543 304.28C304.063 303.72 303.823 303.04 303.823 302.24V223.88C303.823 223 304.063 222.32 304.543 221.84C305.103 221.28 305.783 221 306.583 221H355.543C356.423 221 357.103 221.28 357.583 221.84C358.143 222.32 358.423 223 358.423 223.88V228.68C358.423 229.48 358.143 230.16 357.583 230.72C357.103 231.2 356.423 231.44 355.543 231.44H315.463V259.4H353.143C354.023 259.4 354.703 259.68 355.183 260.24C355.743 260.72 356.023 261.4 356.023 262.28V267.08C356.023 267.88 355.743 268.56 355.183 269.12C354.623 269.6 353.943 269.84 353.143 269.84H315.463V302.24C315.463 303.04 315.183 303.72 314.623 304.28C314.063 304.76 313.383 305 312.583 305H306.583Z" fill="white"/>
<defs>
<filter id="filter0_d" x="0" y="180" width="489" height="175" filterUnits="userSpaceOnUse" color-interpolation-filters="sRGB">
<feFlood flood-opacity="0" result="BackgroundImageFix"/>
<feColorMatrix in="SourceAlpha" type="matrix" values="0 0 0 0 0 0 0 0 0 0 0 0 0 0 0 0 0 0 127 0"/>
<feOffset dy="4"/>
<feGaussianBlur stdDeviation="2"/>
<feColorMatrix type="matrix" values="0 0 0 0 0 0 0 0 0 0 0 0 0 0 0 0 0 0 0.25 0"/>
<feBlend mode="normal" in2="BackgroundImageFix" result="effect1_dropShadow"/>
<feBlend mode="normal" in="SourceGraphic" in2="effect1_dropShadow" result="shape"/>
</filter>
<clipPath id="clip0">
<rect width="477.867" height="477.867" fill="white" transform="translate(4)"/>
</clipPath>
</defs>
</svg>
