<svg width="489" height="478" viewBox="0 0 489 478" fill="none" xmlns="http://www.w3.org/2000/svg">
<g clip-path="url(#clip0)">
<path d="M425.649 90.317L340.316 4.983C338.727 3.39 336.835 2.131 334.752 1.28C332.693 0.439 330.491 0.004 328.267 0H106.4C78.123 0 55.2 22.923 55.2 51.2V426.667C55.2 454.944 78.123 477.867 106.4 477.867H379.467C407.744 477.867 430.667 454.944 430.667 426.667V102.4C430.643 97.87 428.841 93.531 425.649 90.317ZM345.333 58.266L372.401 85.334H345.333V58.266ZM396.533 426.667C396.533 436.093 388.892 443.734 379.466 443.734H106.4C96.974 443.734 89.333 436.093 89.333 426.667V51.2C89.333 41.774 96.974 34.133 106.4 34.133H311.2V102.4C311.2 111.826 318.841 119.467 328.267 119.467H396.534V426.667H396.533Z" fill="black"/>
</g>
<g filter="url(#filter0_d)">
<rect x="4" y="180" width="481" height="167" rx="20" fill="black"/>
<rect x="4.5" y="180.5" width="480" height="166" rx="19.5" stroke="black"/>
</g>
<path d="M103.6 305C101.52 305 100.28 303.92 99.88 301.76L84.4 224.72C84.32 224.32 84.28 223.88 84.28 223.4C84.28 222.76 84.52 222.2 85 221.72C85.48 221.24 86.04 221 86.68 221H92.92C94.6 221 95.56 221.68 95.8 223.04L108.04 284.96L121 242.48C121.72 240.56 123 239.6 124.84 239.6H129.28C130.32 239.6 131.12 239.88 131.68 240.44C132.32 241 132.76 241.68 133 242.48L146.08 284.96L158.2 223.04C158.44 221.68 159.44 221 161.2 221H167.44C168.08 221 168.64 221.24 169.12 221.72C169.6 222.2 169.84 222.76 169.84 223.4L169.72 224.72L154.24 301.76C153.76 303.92 152.52 305 150.52 305H145.84C143.76 305 142.44 304 141.88 302L127 256.28L112.24 302C111.6 304 110.28 305 108.28 305H103.6ZM188.294 305C187.494 305 186.814 304.76 186.254 304.28C185.774 303.72 185.534 303.04 185.534 302.24V223.88C185.534 223 185.774 222.32 186.254 221.84C186.814 221.28 187.494 221 188.294 221H221.174C229.734 221 236.174 223.04 240.494 227.12C244.814 231.2 246.974 236.56 246.974 243.2C246.974 247.68 245.934 251.4 243.854 254.36C241.854 257.32 239.454 259.48 236.654 260.84C240.014 262.52 242.854 265.12 245.174 268.64C247.494 272.16 248.654 276.2 248.654 280.76C248.654 285.24 247.614 289.32 245.534 293C243.534 296.68 240.534 299.6 236.534 301.76C232.534 303.92 227.734 305 222.134 305H188.294ZM219.374 256.52C224.414 256.52 228.254 255.36 230.894 253.04C233.614 250.72 234.974 247.48 234.974 243.32C234.974 239.24 233.654 236.12 231.014 233.96C228.374 231.8 224.494 230.72 219.374 230.72H197.294V256.52H219.374ZM220.574 295.28C225.614 295.28 229.534 293.92 232.334 291.2C235.214 288.48 236.654 285 236.654 280.76C236.654 276.36 235.214 272.84 232.334 270.2C229.534 267.48 225.614 266.12 220.574 266.12H197.294V295.28H220.574ZM268.45 305C267.65 305 266.97 304.76 266.41 304.28C265.93 303.72 265.69 303.04 265.69 302.24V223.88C265.69 223 265.93 222.32 266.41 221.84C266.97 221.28 267.65 221 268.45 221H274.45C275.73 221 276.77 221.64 277.57 222.92L302.89 271.4L328.45 222.92C328.61 222.44 328.93 222 329.41 221.6C329.97 221.2 330.65 221 331.45 221H337.33C338.21 221 338.89 221.28 339.37 221.84C339.93 222.32 340.21 223 340.21 223.88V302.24C340.21 303.04 339.93 303.72 339.37 304.28C338.81 304.76 338.13 305 337.33 305H331.45C330.65 305 329.97 304.76 329.41 304.28C328.93 303.72 328.69 303.04 328.69 302.24V243.2L308.65 282.32C307.85 284 306.57 284.84 304.81 284.84H301.09C299.33 284.84 298.05 284 297.25 282.32L277.09 243.2V302.24C277.09 303.04 276.81 303.72 276.25 304.28C275.77 304.76 275.13 305 274.33 305H268.45ZM363.723 305C362.923 305 362.243 304.76 361.683 304.28C361.203 303.72 360.963 303.04 360.963 302.24V223.88C360.963 223 361.203 222.32 361.683 221.84C362.243 221.28 362.923 221 363.723 221H394.203C403.243 221 410.363 223.2 415.563 227.6C420.763 232 423.363 238.36 423.363 246.68C423.363 255 420.763 261.36 415.563 265.76C410.443 270.08 403.323 272.24 394.203 272.24H372.963V302.24C372.963 303.04 372.683 303.72 372.123 304.28C371.563 304.76 370.883 305 370.083 305H363.723ZM393.603 262.16C399.443 262.16 403.843 260.84 406.803 258.2C409.843 255.56 411.363 251.72 411.363 246.68C411.363 241.64 409.883 237.8 406.923 235.16C403.963 232.44 399.523 231.08 393.603 231.08H372.843V262.16H393.603Z" fill="white"/>
<defs>
<filter id="filter0_d" x="0" y="180" width="489" height="175" filterUnits="userSpaceOnUse" color-interpolation-filters="sRGB">
<feFlood flood-opacity="0" result="BackgroundImageFix"/>
<feColorMatrix in="SourceAlpha" type="matrix" values="0 0 0 0 0 0 0 0 0 0 0 0 0 0 0 0 0 0 127 0"/>
<feOffset dy="4"/>
<feGaussianBlur stdDeviation="2"/>
<feColorMatrix type="matrix" values="0 0 0 0 0 0 0 0 0 0 0 0 0 0 0 0 0 0 0.25 0"/>
<feBlend mode="normal" in2="BackgroundImageFix" result="effect1_dropShadow"/>
<feBlend mode="normal" in="SourceGraphic" in2="effect1_dropShadow" result="shape"/>
</filter>
<clipPath id="clip0">
<rect width="477.867" height="477.867" fill="white" transform="translate(4)"/>
</clipPath>
</defs>
</svg>
