<svg width="489" height="478" viewBox="0 0 489 478" fill="none" xmlns="http://www.w3.org/2000/svg">
<g clip-path="url(#clip0)">
<path d="M425.649 90.317L340.316 4.983C338.727 3.39 336.835 2.131 334.752 1.28C332.693 0.439 330.491 0.004 328.267 0H106.4C78.123 0 55.2 22.923 55.2 51.2V426.667C55.2 454.944 78.123 477.867 106.4 477.867H379.467C407.744 477.867 430.667 454.944 430.667 426.667V102.4C430.643 97.87 428.841 93.531 425.649 90.317ZM345.333 58.266L372.401 85.334H345.333V58.266ZM396.533 426.667C396.533 436.093 388.892 443.734 379.466 443.734H106.4C96.974 443.734 89.333 436.093 89.333 426.667V51.2C89.333 41.774 96.974 34.133 106.4 34.133H311.2V102.4C311.2 111.826 318.841 119.467 328.267 119.467H396.534V426.667H396.533Z" fill="black"/>
</g>
<g filter="url(#filter0_d)">
<rect x="4" y="180" width="481" height="167" rx="20" fill="black"/>
<rect x="4.5" y="180.5" width="480" height="166" rx="19.5" stroke="black"/>
</g>
<path d="M103.6 305C101.52 305 100.28 303.92 99.88 301.76L84.4 224.72C84.32 224.32 84.28 223.88 84.28 223.4C84.28 222.76 84.52 222.2 85 221.72C85.48 221.24 86.04 221 86.68 221H92.92C94.6 221 95.56 221.68 95.8 223.04L108.04 284.96L121 242.48C121.72 240.56 123 239.6 124.84 239.6H129.28C130.32 239.6 131.12 239.88 131.68 240.44C132.32 241 132.76 241.68 133 242.48L146.08 284.96L158.2 223.04C158.44 221.68 159.44 221 161.2 221H167.44C168.08 221 168.64 221.24 169.12 221.72C169.6 222.2 169.84 222.76 169.84 223.4L169.72 224.72L154.24 301.76C153.76 303.92 152.52 305 150.52 305H145.84C143.76 305 142.44 304 141.88 302L127 256.28L112.24 302C111.6 304 110.28 305 108.28 305H103.6ZM188.294 305C187.494 305 186.814 304.76 186.254 304.28C185.774 303.72 185.534 303.04 185.534 302.24V223.88C185.534 223 185.774 222.32 186.254 221.84C186.814 221.28 187.494 221 188.294 221H237.854C238.654 221 239.294 221.28 239.774 221.84C240.334 222.32 240.614 223 240.614 223.88V228.44C240.614 229.24 240.374 229.92 239.894 230.48C239.414 230.96 238.734 231.2 237.854 231.2H197.054V257.48H235.214C236.014 257.48 236.654 257.76 237.134 258.32C237.694 258.8 237.974 259.48 237.974 260.36V264.8C237.974 265.6 237.694 266.28 237.134 266.84C236.654 267.32 236.014 267.56 235.214 267.56H197.054V294.8H238.814C239.694 294.8 240.374 295.04 240.854 295.52C241.334 296 241.574 296.68 241.574 297.56V302.24C241.574 303.04 241.294 303.72 240.734 304.28C240.254 304.76 239.614 305 238.814 305H188.294ZM261.067 305C260.267 305 259.587 304.76 259.027 304.28C258.547 303.72 258.307 303.04 258.307 302.24V223.88C258.307 223 258.547 222.32 259.027 221.84C259.587 221.28 260.267 221 261.067 221H293.947C302.507 221 308.947 223.04 313.267 227.12C317.587 231.2 319.747 236.56 319.747 243.2C319.747 247.68 318.707 251.4 316.627 254.36C314.627 257.32 312.227 259.48 309.427 260.84C312.787 262.52 315.627 265.12 317.947 268.64C320.267 272.16 321.427 276.2 321.427 280.76C321.427 285.24 320.387 289.32 318.307 293C316.307 296.68 313.307 299.6 309.307 301.76C305.307 303.92 300.507 305 294.907 305H261.067ZM292.147 256.52C297.187 256.52 301.027 255.36 303.667 253.04C306.387 250.72 307.747 247.48 307.747 243.32C307.747 239.24 306.427 236.12 303.787 233.96C301.147 231.8 297.267 230.72 292.147 230.72H270.067V256.52H292.147ZM293.347 295.28C298.387 295.28 302.307 293.92 305.107 291.2C307.987 288.48 309.427 285 309.427 280.76C309.427 276.36 307.987 272.84 305.107 270.2C302.307 267.48 298.387 266.12 293.347 266.12H270.067V295.28H293.347ZM341.223 305C340.423 305 339.743 304.76 339.183 304.28C338.703 303.72 338.463 303.04 338.463 302.24V223.88C338.463 223 338.703 222.32 339.183 221.84C339.743 221.28 340.423 221 341.223 221H371.703C380.743 221 387.863 223.2 393.063 227.6C398.263 232 400.863 238.36 400.863 246.68C400.863 255 398.263 261.36 393.063 265.76C387.943 270.08 380.823 272.24 371.703 272.24H350.463V302.24C350.463 303.04 350.183 303.72 349.623 304.28C349.063 304.76 348.383 305 347.583 305H341.223ZM371.103 262.16C376.943 262.16 381.343 260.84 384.303 258.2C387.343 255.56 388.863 251.72 388.863 246.68C388.863 241.64 387.383 237.8 384.423 235.16C381.463 232.44 377.023 231.08 371.103 231.08H350.343V262.16H371.103Z" fill="white"/>
<defs>
<filter id="filter0_d" x="0" y="180" width="489" height="175" filterUnits="userSpaceOnUse" color-interpolation-filters="sRGB">
<feFlood flood-opacity="0" result="BackgroundImageFix"/>
<feColorMatrix in="SourceAlpha" type="matrix" values="0 0 0 0 0 0 0 0 0 0 0 0 0 0 0 0 0 0 127 0"/>
<feOffset dy="4"/>
<feGaussianBlur stdDeviation="2"/>
<feColorMatrix type="matrix" values="0 0 0 0 0 0 0 0 0 0 0 0 0 0 0 0 0 0 0.25 0"/>
<feBlend mode="normal" in2="BackgroundImageFix" result="effect1_dropShadow"/>
<feBlend mode="normal" in="SourceGraphic" in2="effect1_dropShadow" result="shape"/>
</filter>
<clipPath id="clip0">
<rect width="477.867" height="477.867" fill="white" transform="translate(4)"/>
</clipPath>
</defs>
</svg>
