<?xml version="1.0" encoding="iso-8859-1"?>
<!-- Generator: Adobe Illustrator 19.1.0, SVG Export Plug-In . SVG Version: 6.00 Build 0)  -->
<svg xmlns="http://www.w3.org/2000/svg" xmlns:xlink="http://www.w3.org/1999/xlink" version="1.1" id="Capa_1" x="0px" y="0px" viewBox="0 0 56.854 56.854" style="enable-background:new 0 0 56.854 56.854;" xml:space="preserve" width="512px" height="512px">
<g>
	<g>
		<path d="M2.575,39.761c3.027,6.355,8.349,11.151,14.984,13.505c2.885,1.023,5.864,1.52,8.815,1.52    c7.193,0,14.221-2.949,19.302-8.41c0.752-0.809,0.706-2.074-0.103-2.826c-0.81-0.753-2.075-0.708-2.827,0.102    c-6.078,6.533-15.438,8.827-23.851,5.846C7.279,45.375,1.179,32.571,5.3,20.953S22.223,3.239,33.843,7.357    c5.802,2.059,10.379,6.291,12.875,11.809l-9.691-3.438c-1.039-0.367-2.185,0.176-2.554,1.216c-0.37,1.041,0.175,2.185,1.216,2.554    l13.846,4.911c0.217,0.077,0.443,0.115,0.669,0.115c0.295,0,0.589-0.065,0.86-0.194c0.479-0.229,0.848-0.638,1.024-1.137    l4.651-13.116c0.369-1.042-0.176-2.185-1.217-2.554c-1.042-0.367-2.184,0.176-2.553,1.216l-2.898,8.175    c-2.998-6.211-8.262-10.975-14.893-13.326C21.483-1.274,6.388,5.921,1.531,19.616C-0.823,26.251-0.452,33.405,2.575,39.761z" fill="#5078F1"/>
	</g>
</g>
<g>
</g>
<g>
</g>
<g>
</g>
<g>
</g>
<g>
</g>
<g>
</g>
<g>
</g>
<g>
</g>
<g>
</g>
<g>
</g>
<g>
</g>
<g>
</g>
<g>
</g>
<g>
</g>
<g>
</g>
</svg>
